<mxfile host="app.diagrams.net" agent="Mozilla/5.0 (Windows NT 10.0; Win64; x64) AppleWebKit/537.36 (KHTML, like Gecko) Chrome/136.0.0.0 Safari/537.36" version="26.2.14">
  <diagram name="Page-1" id="hxkV9bFrocCi0S-l09bf">
    <mxGraphModel dx="1042" dy="562" grid="1" gridSize="10" guides="1" tooltips="1" connect="1" arrows="1" fold="1" page="1" pageScale="1" pageWidth="850" pageHeight="1100" math="0" shadow="0">
      <root>
        <mxCell id="0" />
        <mxCell id="1" parent="0" />
        <mxCell id="gR9U1tMYyOXmdUipk33c-1" value="Passenger_arrives" style="rounded=0;whiteSpace=wrap;html=1;" vertex="1" parent="1">
          <mxGeometry x="190" y="50" width="120" height="60" as="geometry" />
        </mxCell>
        <mxCell id="gR9U1tMYyOXmdUipk33c-3" value="" style="endArrow=classic;html=1;rounded=0;exitX=0.5;exitY=1;exitDx=0;exitDy=0;" edge="1" parent="1" source="gR9U1tMYyOXmdUipk33c-1">
          <mxGeometry width="50" height="50" relative="1" as="geometry">
            <mxPoint x="400" y="320" as="sourcePoint" />
            <mxPoint x="250" y="190" as="targetPoint" />
          </mxGeometry>
        </mxCell>
        <mxCell id="gR9U1tMYyOXmdUipk33c-6" value="" style="edgeStyle=orthogonalEdgeStyle;rounded=0;orthogonalLoop=1;jettySize=auto;html=1;" edge="1" parent="1" source="gR9U1tMYyOXmdUipk33c-4" target="gR9U1tMYyOXmdUipk33c-5">
          <mxGeometry relative="1" as="geometry" />
        </mxCell>
        <mxCell id="gR9U1tMYyOXmdUipk33c-4" value="reveal_his_identity" style="rounded=0;whiteSpace=wrap;html=1;" vertex="1" parent="1">
          <mxGeometry x="190" y="190" width="120" height="60" as="geometry" />
        </mxCell>
        <mxCell id="gR9U1tMYyOXmdUipk33c-8" value="" style="edgeStyle=orthogonalEdgeStyle;rounded=0;orthogonalLoop=1;jettySize=auto;html=1;" edge="1" parent="1" source="gR9U1tMYyOXmdUipk33c-5" target="gR9U1tMYyOXmdUipk33c-7">
          <mxGeometry relative="1" as="geometry" />
        </mxCell>
        <mxCell id="gR9U1tMYyOXmdUipk33c-5" value="station_master_fillup_the_form&lt;div&gt;&lt;br&gt;&lt;/div&gt;" style="whiteSpace=wrap;html=1;rounded=0;" vertex="1" parent="1">
          <mxGeometry x="145" y="330" width="210" height="60" as="geometry" />
        </mxCell>
        <mxCell id="gR9U1tMYyOXmdUipk33c-10" value="" style="edgeStyle=orthogonalEdgeStyle;rounded=0;orthogonalLoop=1;jettySize=auto;html=1;" edge="1" parent="1" source="gR9U1tMYyOXmdUipk33c-7" target="gR9U1tMYyOXmdUipk33c-9">
          <mxGeometry relative="1" as="geometry" />
        </mxCell>
        <mxCell id="gR9U1tMYyOXmdUipk33c-12" value="" style="edgeStyle=orthogonalEdgeStyle;rounded=0;orthogonalLoop=1;jettySize=auto;html=1;" edge="1" parent="1" source="gR9U1tMYyOXmdUipk33c-7" target="gR9U1tMYyOXmdUipk33c-11">
          <mxGeometry relative="1" as="geometry" />
        </mxCell>
        <mxCell id="gR9U1tMYyOXmdUipk33c-7" value="send_data_to_backend" style="ellipse;whiteSpace=wrap;html=1;rounded=0;" vertex="1" parent="1">
          <mxGeometry x="175" y="460" width="150" height="140" as="geometry" />
        </mxCell>
        <mxCell id="gR9U1tMYyOXmdUipk33c-14" value="" style="edgeStyle=orthogonalEdgeStyle;rounded=0;orthogonalLoop=1;jettySize=auto;html=1;" edge="1" parent="1" source="gR9U1tMYyOXmdUipk33c-9" target="gR9U1tMYyOXmdUipk33c-13">
          <mxGeometry relative="1" as="geometry" />
        </mxCell>
        <mxCell id="gR9U1tMYyOXmdUipk33c-9" value="data_to_aws" style="ellipse;whiteSpace=wrap;html=1;rounded=0;" vertex="1" parent="1">
          <mxGeometry x="210" y="650" width="80" height="80" as="geometry" />
        </mxCell>
        <mxCell id="gR9U1tMYyOXmdUipk33c-11" value="data=&amp;gt;&lt;div&gt;1. NIC&lt;/div&gt;&lt;div&gt;2. Amount&lt;/div&gt;" style="rhombus;whiteSpace=wrap;html=1;rounded=0;" vertex="1" parent="1">
          <mxGeometry x="440" y="480" width="110" height="100" as="geometry" />
        </mxCell>
        <mxCell id="gR9U1tMYyOXmdUipk33c-16" value="" style="edgeStyle=orthogonalEdgeStyle;rounded=0;orthogonalLoop=1;jettySize=auto;html=1;" edge="1" parent="1" source="gR9U1tMYyOXmdUipk33c-13" target="gR9U1tMYyOXmdUipk33c-15">
          <mxGeometry relative="1" as="geometry" />
        </mxCell>
        <mxCell id="gR9U1tMYyOXmdUipk33c-13" value="esp32_get_nic&amp;nbsp;" style="ellipse;whiteSpace=wrap;html=1;rounded=0;" vertex="1" parent="1">
          <mxGeometry x="210" y="760" width="80" height="80" as="geometry" />
        </mxCell>
        <mxCell id="gR9U1tMYyOXmdUipk33c-18" value="" style="edgeStyle=orthogonalEdgeStyle;rounded=0;orthogonalLoop=1;jettySize=auto;html=1;" edge="1" parent="1" source="gR9U1tMYyOXmdUipk33c-15" target="gR9U1tMYyOXmdUipk33c-17">
          <mxGeometry relative="1" as="geometry" />
        </mxCell>
        <mxCell id="gR9U1tMYyOXmdUipk33c-15" value="make_the_key" style="rhombus;whiteSpace=wrap;html=1;rounded=0;" vertex="1" parent="1">
          <mxGeometry x="180" y="880" width="140" height="140" as="geometry" />
        </mxCell>
        <mxCell id="gR9U1tMYyOXmdUipk33c-19" style="edgeStyle=orthogonalEdgeStyle;rounded=0;orthogonalLoop=1;jettySize=auto;html=1;" edge="1" parent="1" source="gR9U1tMYyOXmdUipk33c-17">
          <mxGeometry relative="1" as="geometry">
            <mxPoint x="650" y="80" as="targetPoint" />
          </mxGeometry>
        </mxCell>
        <mxCell id="gR9U1tMYyOXmdUipk33c-21" value="Text" style="edgeLabel;html=1;align=center;verticalAlign=middle;resizable=0;points=[];" vertex="1" connectable="0" parent="gR9U1tMYyOXmdUipk33c-19">
          <mxGeometry x="0.983" relative="1" as="geometry">
            <mxPoint as="offset" />
          </mxGeometry>
        </mxCell>
        <mxCell id="gR9U1tMYyOXmdUipk33c-17" value="nic_key_and_amount&lt;div&gt;written_to_the_card&lt;/div&gt;" style="whiteSpace=wrap;html=1;rounded=0;" vertex="1" parent="1">
          <mxGeometry x="410" y="920" width="120" height="60" as="geometry" />
        </mxCell>
        <mxCell id="gR9U1tMYyOXmdUipk33c-20" value="" style="endArrow=classic;html=1;rounded=0;entryX=1;entryY=0.5;entryDx=0;entryDy=0;" edge="1" parent="1" target="gR9U1tMYyOXmdUipk33c-1">
          <mxGeometry width="50" height="50" relative="1" as="geometry">
            <mxPoint x="650" y="80" as="sourcePoint" />
            <mxPoint x="450" y="280" as="targetPoint" />
          </mxGeometry>
        </mxCell>
      </root>
    </mxGraphModel>
  </diagram>
</mxfile>
